<svg xmlns="http://www.w3.org/2000/svg" xmlns:xlink="http://www.w3.org/1999/xlink" width="60" height="60" version="1.1" viewBox="0 0 60 60"><title>Artboard</title><g id="Artboard" fill="none" fill-rule="evenodd" stroke="none" stroke-width="1" opacity=".687"><path id="Path" fill="#B2B2B2" fill-rule="nonzero" d="M9.0042,31.1067817 C9.0042,19.6710702 18.2753702,10.3999 29.7110817,10.3999 C41.1467933,10.3999 50.4179635,19.6710702 50.4179635,31.1067817 L9.0042,31.1067817 Z"/><circle id="Oval" cx="36.725" cy="17.735" r="1.137" fill="#B2B2B2" fill-rule="nonzero"/><circle id="Oval" cx="42.271" cy="22.825" r="1.137" fill="#B2B2B2" fill-rule="nonzero"/><circle id="Oval" cx="35.998" cy="24.072" r="1.137" fill="#B2B2B2" fill-rule="nonzero"/><path id="Path" fill="#B2B2B2" fill-rule="nonzero" d="M19.6705124,49.2094944 L15.9924831,57.9944883 L20.8331078,60.0237458 L24.544958,51.1626547 C26.1979573,51.5896443 27.9312814,51.8179358 29.715337,51.8179358 C41.134138,51.8179358 50.4222187,42.5298551 50.4222187,31.111054 L45.1715149,31.111054 C45.1715149,39.6339355 38.2382185,46.5714596 29.7111094,46.5714596 C21.1840002,46.5714596 14.2507038,39.6381632 14.2507038,31.111054 L9,31.111054 C9,38.8856468 13.3121722,45.6709766 19.6662847,49.213722 L19.6705124,49.2094944 Z"/><path id="Path" fill="#B2B2B2" fill-rule="nonzero" d="M38.2762671,8.8817842e-16 C34.2050692,8.8817842e-16 30.6665514,2.27023183 28.8444473,5.61005146 C30.2480171,6.91215836 31.3006944,8.58206818 31.850285,10.4718142 C36.5894468,9.40645403 40.144875,5.22111044 40.2294274,0.181787651 C39.5952844,0.0634142969 38.944231,8.8817842e-16 38.2762671,8.8817842e-16 L38.2762671,8.8817842e-16 Z"/><path id="Path" fill="#B2B2B2" fill-rule="nonzero" d="M21.5391203,2.73104238 C20.7316449,2.73104238 19.9495353,2.82405002 19.1927913,2.98892719 C20.4906706,7.46597655 24.6168275,10.7381543 29.5081836,10.7381543 C30.315659,10.7381543 31.0977686,10.6451466 31.8545126,10.4802695 C30.5566333,6.0032201 26.4304764,2.73104238 21.5391203,2.73104238 Z"/></g></svg>