<svg xmlns="http://www.w3.org/2000/svg" xmlns:xlink="http://www.w3.org/1999/xlink" width="22" height="22" version="1.1" viewBox="0 0 22 22"><title>Add to list</title><g id="Add-to-list" fill="none" fill-rule="evenodd" stroke="none" stroke-width="1"><g id="add_to_list" fill="#FF8C14" fill-rule="nonzero" transform="translate(0, 1.0778)"><path id="Shape" d="M22,11 L22,13 L4,13 L4,11 L22,11 Z M22,5 L22,7 L10.6546193,7.00084895 C10.8781556,6.37429329 11,5.70062619 11,5 L22,5 Z M4,17 L4,19 L22,19 L22,17 L4,17 Z M5,0 C2.2385,0 0,2.2385 0,5 C0,7.7615 2.2385,10 5,10 C7.7615,10 10,7.7615 10,5 C10,2.2385 7.7615,0 5,0 Z M7,5.5 L5.5,5.5 L5.5,7 L4.5,7 L4.5,5.5 L3,5.5 L3,4.5 L4.5,4.5 L4.5,3 L5.5,3 L5.5,4.5 L7,4.5 L7,5.5 Z"/></g></g></svg>