<svg xmlns="http://www.w3.org/2000/svg" xmlns:xlink="http://www.w3.org/1999/xlink" width="31" height="31" version="1.1" viewBox="0 0 31 31"><title>Barcode</title><g id="Barcode" fill="none" fill-rule="evenodd" stroke="none" stroke-width="1"><g id="barcode" fill="#000" fill-rule="nonzero" transform="translate(0, 4.0774)"><path id="Shape" d="M0,0 L0,23 L1,23 L1,0 L0,0 Z M3,0 L3,23 L5,23 L5,0 L3,0 Z M6,0 L6,23 L12,23 L12,0 L6,0 Z M14,0 L14,23 L15,23 L15,0 L14,0 Z M17,0 L17,23 L19,23 L19,0 L17,0 Z M20,0 L20,23 L21,23 L21,0 L20,0 Z M23,0 L23,23 L26,23 L26,0 L23,0 Z M28,0 L28,23 L29,23 L29,0 L28,0 Z M30,0 L30,23 L31,23 L31,0 L30,0 Z"/></g></g></svg>